<svg width="241" height="246" viewBox="0 0 241 246" fill="none" xmlns="http://www.w3.org/2000/svg">
<path fill-rule="evenodd" clip-rule="evenodd" d="M232.087 47.4251C236.328 30.3909 223.442 13.9028 205.888 13.9028C193.489 13.9028 182.684 22.3476 179.688 34.3793L138.612 199.365C134.371 216.398 147.257 232.886 164.81 232.886C177.209 232.887 188.015 224.442 191.01 212.41L232.087 47.4251Z" fill="#00CCFF"/>
<path d="M63.4983 115.859C65.3451 109.429 71.226 105 77.9153 105H198.074C208.052 105 215.249 114.56 212.489 124.148C210.64 130.574 204.761 135 198.074 135H77.9153C67.9407 135 60.7445 125.446 63.4983 115.859Z" fill="#66E0FF"/>
<path fill-rule="evenodd" clip-rule="evenodd" d="M102.161 47.4771C106.403 30.4429 93.5162 13.9548 75.9619 13.9548V13.9548C63.563 13.9548 52.7578 22.3997 49.7623 34.4313L8.68608 199.417C4.44522 216.45 17.331 232.938 34.8847 232.938V232.938C47.2836 232.939 58.0889 224.494 61.0845 212.462L102.161 47.4771Z" fill="#00CCFF"/>
</svg>
